<svg width="16" height="17" viewBox="0 0 16 17" fill="none" xmlns="http://www.w3.org/2000/svg">
<path d="M5.3571 15.1934L11.6471 9.1934C11.7502 9.09967 11.8326 8.98543 11.889 8.85799C11.9454 8.73056 11.9745 8.59275 11.9745 8.4534C11.9745 8.31405 11.9454 8.17624 11.889 8.0488C11.8326 7.92137 11.7502 7.80713 11.6471 7.7134L5.3571 1.7134C5.20084 1.56424 4.99313 1.48102 4.7771 1.48102C4.56108 1.48102 4.35336 1.56424 4.1971 1.7134C4.12423 1.78423 4.06629 1.86896 4.02674 1.96257C3.98718 2.05618 3.9668 2.15677 3.9668 2.2584C3.9668 2.36003 3.98718 2.46062 4.02674 2.55423C4.06629 2.64784 4.12423 2.73257 4.1971 2.8034L10.1271 8.4234L4.1971 14.1034C4.12423 14.1742 4.0663 14.259 4.02674 14.3526C3.98718 14.4462 3.9668 14.5468 3.9668 14.6484C3.9668 14.75 3.98718 14.8506 4.02674 14.9442C4.0663 15.0378 4.12423 15.1226 4.1971 15.1934C4.35336 15.3426 4.56108 15.4258 4.7771 15.4258C4.99313 15.4258 5.20084 15.3426 5.3571 15.1934Z" fill="black" fill-opacity="0.4"/>
</svg>
